<mxfile host="app.diagrams.net" modified="2024-06-16T05:58:22.012Z" agent="Mozilla/5.0 (X11; Linux x86_64) AppleWebKit/537.36 (KHTML, like Gecko) Chrome/126.0.0.0 Safari/537.36" version="24.5.4" etag="1OFzUOU6BJDQr2PjnYQW" type="github">
  <diagram name="Page-1" id="NhJ66gFc7uAcACdVgEYR">
    <mxGraphModel>
      <root>
        <mxCell id="0" />
        <mxCell id="1" parent="0" />
      </root>
    </mxGraphModel>
  </diagram>
</mxfile>
